<svg xmlns="http://www.w3.org/2000/svg" viewBox="0 0 191.79 83.75"><g id="Layer_2" data-name="Layer 2"><g id="Layer_5" data-name="Layer 5"><polygon points="136.62 20.5 173.73 20.5 174.39 19.75 137.28 19.75 136.62 20.5" style="fill:#ed2124"/><polygon points="137.73 19.25 174.84 19.25 175.06 19 137.95 19 137.73 19.25" style="fill:#ed2124"/><polygon points="131.54 26.25 168.65 26.25 168.87 26 131.76 26 131.54 26.25" style="fill:#ed2124"/><polygon points="145.45 10.5 182.56 10.5 183 10 145.89 10 145.45 10.5" style="fill:#ed2124"/><polygon points="144.79 11.25 181.9 11.25 182.12 11 145.01 11 144.79 11.25" style="fill:#ed2124"/><polygon points="121.17 38 158.28 38 158.5 37.75 121.39 37.75 121.17 38" style="fill:#ed2124"/><polygon points="120.73 38.5 120.5 38.75 157.61 38.75 157.84 38.5 120.73 38.5" style="fill:#ed2124"/><polygon points="118.74 40.75 155.85 40.75 156.51 40 119.4 40 118.74 40.75" style="fill:#ed2124"/><polygon points="119.84 39.5 156.95 39.5 157.17 39.25 120.06 39.25 119.84 39.5" style="fill:#ed2124"/><polygon points="130.66 27.25 167.77 27.25 168.21 26.75 131.1 26.75 130.66 27.25" style="fill:#ed2124"/><polygon points="146.34 9.5 183.44 9.5 184.11 8.75 147 8.75 146.34 9.5" style="fill:#ed2124"/><polygon points="125.58 33 162.69 33 162.91 32.75 125.8 32.75 125.58 33" style="fill:#ed2124"/><polygon points="154.83 42.25 117.72 42.25 117.94 42.5 155.05 42.5 154.83 42.25" style="fill:#ed2124"/><polygon points="178.23 68.75 178.01 68.5 140.9 68.5 141.13 68.75 178.23 68.75" style="fill:#ed2124"/><polygon points="181.46 11.75 144.35 11.75 144.13 12 181.24 12 181.46 11.75" style="fill:#ed2124"/><polygon points="178.9 69.5 178.68 69.25 141.57 69.25 141.79 69.5 178.9 69.5" style="fill:#ed2124"/><polygon points="138.25 65.5 138.48 65.75 175.59 65.75 175.36 65.5 138.25 65.5" style="fill:#ed2124"/><polygon points="137.81 65 174.92 65 174.7 64.75 137.59 64.75 137.81 65" style="fill:#ed2124"/><polygon points="139.14 66.5 176.25 66.5 176.03 66.25 138.92 66.25 139.14 66.5" style="fill:#ed2124"/><polygon points="147.66 8 147.44 8.25 184.55 8.25 184.77 8 147.66 8" style="fill:#ed2124"/><polygon points="148.1 7.5 185.21 7.5 185.43 7.25 148.32 7.25 148.1 7.5" style="fill:#ed2124"/><polygon points="140.46 68 177.57 68 176.69 67 139.58 67 140.46 68" style="fill:#ed2124"/><polygon points="134.94 61.75 172.05 61.75 171.83 61.5 134.72 61.5 134.94 61.75" style="fill:#ed2124"/><polygon points="115.63 2.5 189.63 2.5 189.85 2.25 115.84 2.25 115.63 2.5" style="fill:#ed2124"/><polygon points="114.77 3.5 188.74 3.5 189.19 3 115.2 3 114.77 3.5" style="fill:#ed2124"/><polygon points="169.98 24.75 170.2 24.5 133.09 24.5 132.87 24.75 169.98 24.75" style="fill:#ed2124"/><polygon points="150.97 4.25 188.08 4.25 188.3 4 151.19 4 150.97 4.25" style="fill:#ed2124"/><polygon points="124.04 34.75 161.15 34.75 161.37 34.5 124.26 34.5 124.04 34.75" style="fill:#ed2124"/><polygon points="133.53 24 170.64 24 171.08 23.5 133.97 23.5 133.53 24" style="fill:#ed2124"/><polygon points="119.49 44.25 156.6 44.25 156.16 43.75 119.05 43.75 119.49 44.25" style="fill:#ed2124"/><polygon points="116.1 82.25 190.16 82.25 189.94 82 115.88 82 116.1 82.25" style="fill:#ed2124"/><polygon points="142.58 13.75 179.69 13.75 180.13 13.25 143.02 13.25 142.58 13.75" style="fill:#ed2124"/><polygon points="120.15 45 157.26 45 157.04 44.75 119.93 44.75 120.15 45" style="fill:#ed2124"/><polygon points="141.92 14.5 179.03 14.5 179.25 14.25 142.14 14.25 141.92 14.5" style="fill:#ed2124"/><polygon points="127.44 53.25 164.55 53.25 164.33 53 127.22 53 127.44 53.25" style="fill:#ed2124"/><polygon points="123.02 48.25 160.13 48.25 159.91 48 122.8 48 123.02 48.25" style="fill:#ed2124"/><polygon points="144 72 181.1 72 180.88 71.75 143.77 71.75 144 72" style="fill:#ed2124"/><polygon points="135.74 21.5 172.85 21.5 173.29 21.19 136.18 21.19 135.74 21.5" style="fill:#ed2124"/><polygon points="129.56 28.5 129.34 28.75 166.44 28.75 166.67 28.5 129.56 28.5" style="fill:#ed2124"/><polygon points="164.02 31.5 164.24 31.25 127.13 31.25 126.91 31.5 164.02 31.5" style="fill:#ed2124"/><polygon points="163.35 32.25 163.57 32 126.47 32 126.25 32.25 163.35 32.25" style="fill:#ed2124"/><polygon points="130 28 167.11 28 167.33 27.75 130.22 27.75 130 28" style="fill:#ed2124"/><polygon points="124.7 34 161.81 34 162.25 33.5 125.14 33.5 124.7 34" style="fill:#ed2124"/><polygon points="117.86 41.75 154.97 41.75 155.41 41.25 118.3 41.25 117.86 41.75" style="fill:#ed2124"/><polygon points="172.19 22.25 172.41 22 135.3 22 135.08 22.25 172.19 22.25" style="fill:#ed2124"/><polygon points="169.32 25.5 169.54 25.25 132.43 25.25 132.21 25.5 169.32 25.5" style="fill:#ed2124"/><polygon points="127.57 30.75 164.68 30.75 165.34 30 128.23 30 127.57 30.75" style="fill:#ed2124"/><polygon points="128.67 29.5 165.78 29.5 166 29.25 128.9 29.25 128.67 29.5" style="fill:#ed2124"/><polygon points="171.52 23 171.74 22.75 134.63 22.75 134.41 23 171.52 23" style="fill:#ed2124"/><polygon points="126.78 52.5 163.88 52.5 163.44 52 126.33 52 126.78 52.5" style="fill:#ed2124"/><polygon points="117.17 83.5 117.38 83.75 191.48 83.75 191.26 83.5 117.17 83.5" style="fill:#ed2124"/><polygon points="116.52 82.75 116.74 83 190.82 83 190.6 82.75 116.52 82.75" style="fill:#ed2124"/><polygon points="116.91 1 190.95 1 191.17 0.75 117.13 0.75 116.91 1" style="fill:#ed2124"/><polygon points="146.2 74.5 183.31 74.5 182.87 74 145.76 74 146.2 74.5" style="fill:#ed2124"/><polygon points="144.44 72.5 144.66 72.75 181.77 72.75 181.55 72.5 144.44 72.5" style="fill:#ed2124"/><polygon points="116.48 1.5 116.27 1.75 190.29 1.75 190.51 1.5 116.48 1.5" style="fill:#ed2124"/><polygon points="145.1 73.25 145.32 73.5 182.43 73.5 182.21 73.25 145.1 73.25" style="fill:#ed2124"/><polygon points="143.47 12.75 180.57 12.75 180.8 12.5 143.69 12.5 143.47 12.75" style="fill:#ed2124"/><polygon points="139.05 17.75 176.16 17.75 176.38 17.5 139.27 17.5 139.05 17.75" style="fill:#ed2124"/><polygon points="148.76 6.75 185.87 6.75 186.31 6.25 149.21 6.25 148.76 6.75" style="fill:#ed2124"/><polygon points="150.53 4.75 150.31 5 187.42 5 187.64 4.75 150.53 4.75" style="fill:#ed2124"/><polygon points="138.61 18.25 138.39 18.5 175.5 18.5 175.72 18.25 138.61 18.25" style="fill:#ed2124"/><polygon points="149.65 5.75 186.76 5.75 186.98 5.5 149.87 5.5 149.65 5.75" style="fill:#ed2124"/><polygon points="140.82 15.75 140.6 16 177.71 16 177.93 15.75 140.82 15.75" style="fill:#ed2124"/><polygon points="139.71 17 176.82 17 177.26 16.5 140.15 16.5 139.71 17" style="fill:#ed2124"/><polygon points="120.59 45.5 120.81 45.75 157.92 45.75 157.7 45.5 120.59 45.5" style="fill:#ed2124"/><polygon points="121.25 46.25 121.48 46.5 158.59 46.5 158.37 46.25 121.25 46.25" style="fill:#ed2124"/><polygon points="191.61 0.25 191.79 0.05 191.72 0.05 191.79 0 117.77 0 117.55 0.25 191.61 0.25" style="fill:#ed2124"/><polygon points="141.48 15 141.26 15.25 178.37 15.25 178.59 15 141.48 15" style="fill:#ed2124"/><polygon points="122.36 47.5 159.47 47.5 159.03 47 121.92 47 122.36 47.5" style="fill:#ed2124"/><polygon points="127.88 53.75 128.1 54 165.21 54 164.99 53.75 127.88 53.75" style="fill:#ed2124"/><polygon points="125.23 50.75 162.34 50.75 161.9 50.25 124.79 50.25 125.23 50.75" style="fill:#ed2124"/><polygon points="128.76 54.75 165.87 54.75 165.65 54.5 128.54 54.5 128.76 54.75" style="fill:#ed2124"/><polygon points="134.28 61 171.39 61 170.95 60.5 133.84 60.5 134.28 61" style="fill:#ed2124"/><polygon points="124.13 49.5 124.35 49.75 161.46 49.75 161.24 49.5 124.13 49.5" style="fill:#ed2124"/><polygon points="123.46 48.75 123.68 49 160.79 49 160.57 48.75 123.46 48.75" style="fill:#ed2124"/><polygon points="149.96 78.75 187.07 78.75 186.84 78.5 149.74 78.5 149.96 78.75" style="fill:#ed2124"/><polygon points="115.45 81.5 189.49 81.5 189.05 81 115.03 81 115.45 81.5" style="fill:#ed2124"/><polygon points="143.33 71.25 180.44 71.25 180 70.75 142.89 70.75 143.33 71.25" style="fill:#ed2124"/><polygon points="150.84 79.75 187.95 79.75 187.51 79.25 150.4 79.25 150.84 79.75" style="fill:#ed2124"/><polygon points="130.53 56.75 167.64 56.75 167.42 56.5 130.31 56.5 130.53 56.75" style="fill:#ed2124"/><polygon points="151.5 80.5 188.61 80.5 188.39 80.25 151.28 80.25 151.5 80.5" style="fill:#ed2124"/><polygon points="170.51 60 170.29 59.75 133.18 59.75 133.4 60 170.51 60" style="fill:#ed2124"/><polygon points="131.41 57.75 168.52 57.75 168.08 57.25 130.97 57.25 131.41 57.75" style="fill:#ed2124"/><polygon points="172.49 62.25 135.38 62.25 135.61 62.5 172.72 62.5 172.49 62.25" style="fill:#ed2124"/><polygon points="169.18 58.5 168.96 58.25 131.85 58.25 132.07 58.5 169.18 58.5" style="fill:#ed2124"/><polygon points="169.84 59.25 169.62 59 132.51 59 132.74 59.25 169.84 59.25" style="fill:#ed2124"/><polygon points="149.29 78 186.4 78 185.74 77.25 148.63 77.25 149.29 78" style="fill:#ed2124"/><polygon points="121.83 37.25 158.94 37.25 159.38 36.75 122.27 36.75 121.83 37.25" style="fill:#ed2124"/><polygon points="118.61 43.25 155.72 43.25 155.5 43 118.39 43 118.61 43.25" style="fill:#ed2124"/><polygon points="129.87 56 166.97 56 166.31 55.25 129.2 55.25 129.87 56" style="fill:#ed2124"/><polygon points="125.89 51.5 163 51.5 162.78 51.25 125.67 51.25 125.89 51.5" style="fill:#ed2124"/><polygon points="122.71 36.25 159.82 36.25 160.04 36 122.93 36 122.71 36.25" style="fill:#ed2124"/><polygon points="123.6 35.25 123.38 35.5 160.48 35.5 160.71 35.25 123.6 35.25" style="fill:#ed2124"/><polygon points="137.15 64.25 174.26 64.25 173.82 63.75 136.71 63.75 137.15 64.25" style="fill:#ed2124"/><polygon points="147.31 75.75 147.53 76 184.64 76 184.42 75.75 147.31 75.75" style="fill:#ed2124"/><polygon points="146.87 75.25 183.97 75.25 183.75 75 146.65 75 146.87 75.25" style="fill:#ed2124"/><polygon points="142.45 70.25 179.56 70.25 179.34 70 142.23 70 142.45 70.25" style="fill:#ed2124"/><polygon points="148.19 76.75 185.3 76.75 185.08 76.5 147.97 76.5 148.19 76.75" style="fill:#ed2124"/><polygon points="136.27 63.25 173.38 63.25 173.16 63 136.05 63 136.27 63.25" style="fill:#ed2124"/><polygon points="11.7 27.5 11.96 27.75 21.93 27.75 22.19 27.5 11.7 27.5" style="fill:#ed2124"/><polygon points="12.48 28.25 12.74 28.5 21.15 28.5 21.41 28.25 12.48 28.25" style="fill:#ed2124"/><polygon points="13.27 29 13.53 29.25 20.37 29.25 20.63 29 13.27 29" style="fill:#ed2124"/><polygon points="9.35 25.25 9.61 25.5 24.28 25.5 24.55 25.25 9.35 25.25" style="fill:#ed2124"/><polygon points="10.39 26.25 23.5 26.25 23.76 26 10.13 26 10.39 26.25" style="fill:#ed2124"/><polygon points="10.91 26.75 11.18 27 22.72 27 22.98 26.75 10.91 26.75" style="fill:#ed2124"/><polygon points="33.43 16.75 33.81 16.38 0.07 16.38 0.46 16.75 33.43 16.75" style="fill:#ed2124"/><polygon points="15.1 30.75 15.36 31 18.54 31 18.8 30.75 15.1 30.75" style="fill:#ed2124"/><polygon points="16.66 32.25 16.93 32.5 16.97 32.5 17.23 32.25 16.66 32.25" style="fill:#ed2124"/><polygon points="15.88 31.5 16.14 31.75 17.75 31.75 18.02 31.5 15.88 31.5" style="fill:#ed2124"/><polygon points="14.05 29.75 14.57 30.25 19.32 30.25 19.84 29.75 14.05 29.75" style="fill:#ed2124"/><polygon points="2.55 18.75 2.81 19 31.08 19 31.34 18.75 2.55 18.75" style="fill:#ed2124"/><polygon points="4.38 20.5 4.64 20.75 29.25 20.75 29.51 20.5 4.38 20.5" style="fill:#ed2124"/><polygon points="3.33 19.5 3.86 20 30.03 20 30.55 19.5 3.33 19.5" style="fill:#ed2124"/><polygon points="8.56 24.5 8.82 24.75 25.07 24.75 25.33 24.5 8.56 24.5" style="fill:#ed2124"/><polygon points="1.77 18 2.03 18.25 31.86 18.25 32.12 18 1.77 18" style="fill:#ed2124"/><polygon points="0.98 17.25 1.24 17.5 32.64 17.5 32.91 17.25 0.98 17.25" style="fill:#ed2124"/><polygon points="6.73 22.75 7.25 23.25 26.64 23.25 27.16 22.75 6.73 22.75" style="fill:#ed2124"/><polygon points="5.16 21.25 5.43 21.5 28.46 21.5 28.73 21.25 5.16 21.25" style="fill:#ed2124"/><polygon points="7.78 23.75 8.04 24 25.85 24 26.11 23.75 7.78 23.75" style="fill:#ed2124"/><polygon points="5.95 22 6.21 22.25 27.68 22.25 27.94 22 5.95 22" style="fill:#ed2124"/><polygon points="5.42 62.75 5.16 63 28.58 63 28.32 62.75 5.42 62.75" style="fill:#ed2124"/><polygon points="6.99 61.25 6.73 61.5 27.01 61.5 26.75 61.25 6.99 61.25" style="fill:#ed2124"/><polygon points="8.03 60.25 7.51 60.75 26.23 60.75 25.71 60.25 8.03 60.25" style="fill:#ed2124"/><polygon points="4.64 63.5 4.12 64 29.63 64 29.1 63.5 4.64 63.5" style="fill:#ed2124"/><polygon points="2.02 66 1.76 66.25 31.98 66.25 31.72 66 2.02 66" style="fill:#ed2124"/><polygon points="1.24 66.75 0.72 67.25 33.02 67.25 32.5 66.75 1.24 66.75" style="fill:#ed2124"/><polygon points="3.59 64.5 3.33 64.75 30.41 64.75 30.15 64.5 3.59 64.5" style="fill:#ed2124"/><polygon points="0 67.94 33.74 67.94 33.55 67.75 0.2 67.75 0 67.94" style="fill:#ed2124"/><polygon points="2.81 65.25 2.55 65.5 31.2 65.5 30.93 65.25 2.81 65.25" style="fill:#ed2124"/><polygon points="8.82 59.5 8.56 59.75 25.18 59.75 24.92 59.5 8.82 59.5" style="fill:#ed2124"/><polygon points="6.21 62 5.94 62.25 27.8 62.25 27.54 62 6.21 62" style="fill:#ed2124"/><polygon points="13.52 55 13.26 55.25 20.48 55.25 20.22 55 13.52 55" style="fill:#ed2124"/><polygon points="14.3 54.25 14.04 54.5 19.7 54.5 19.44 54.25 14.3 54.25" style="fill:#ed2124"/><polygon points="15.35 53.25 14.83 53.75 18.91 53.75 18.39 53.25 15.35 53.25" style="fill:#ed2124"/><polygon points="16.14 52.5 15.87 52.75 17.87 52.75 17.61 52.5 16.14 52.5" style="fill:#ed2124"/><polygon points="16.66 52 17.09 52 16.87 51.8 16.66 52" style="fill:#ed2124"/><polygon points="11.17 57.25 10.91 57.5 22.83 57.5 22.57 57.25 11.17 57.25" style="fill:#ed2124"/><polygon points="9.6 58.75 9.34 59 24.4 59 24.14 58.75 9.6 58.75" style="fill:#ed2124"/><polygon points="12.74 55.75 12.48 56 21.27 56 21 55.75 12.74 55.75" style="fill:#ed2124"/><polygon points="10.39 58 10.13 58.25 23.62 58.25 23.36 58 10.39 58" style="fill:#ed2124"/><polygon points="11.69 56.75 22.05 56.75 21.79 56.5 11.95 56.5 11.69 56.75" style="fill:#ed2124"/><polygon points="59.12 20.5 96.23 20.5 96.89 19.75 59.78 19.75 59.12 20.5" style="fill:#ed2124"/><polygon points="60.23 19.25 97.33 19.25 97.56 19 60.45 19 60.23 19.25" style="fill:#ed2124"/><polygon points="54.04 26.25 91.15 26.25 91.37 26 54.27 26 54.04 26.25" style="fill:#ed2124"/><polygon points="67.95 10.5 105.06 10.5 105.5 10 68.39 10 67.95 10.5" style="fill:#ed2124"/><polygon points="67.29 11.25 104.4 11.25 104.62 11 67.51 11 67.29 11.25" style="fill:#ed2124"/><polygon points="43.67 38 80.78 38 81 37.75 43.89 37.75 43.67 38" style="fill:#ed2124"/><polygon points="43.23 38.5 43.01 38.75 80.11 38.75 80.33 38.5 43.23 38.5" style="fill:#ed2124"/><polygon points="41.24 40.75 78.35 40.75 79.01 40 41.9 40 41.24 40.75" style="fill:#ed2124"/><polygon points="42.34 39.5 79.45 39.5 79.67 39.25 42.56 39.25 42.34 39.5" style="fill:#ed2124"/><polygon points="53.16 27.25 90.27 27.25 90.71 26.75 53.6 26.75 53.16 27.25" style="fill:#ed2124"/><polygon points="68.84 9.5 105.94 9.5 106.61 8.75 69.5 8.75 68.84 9.5" style="fill:#ed2124"/><polygon points="48.08 33 85.19 33 85.41 32.75 48.3 32.75 48.08 33" style="fill:#ed2124"/><polygon points="77.33 42.25 40.22 42.25 40.44 42.5 77.55 42.5 77.33 42.25" style="fill:#ed2124"/><polygon points="100.73 68.75 100.51 68.5 63.4 68.5 63.63 68.75 100.73 68.75" style="fill:#ed2124"/><polygon points="103.96 11.75 66.85 11.75 66.63 12 103.74 12 103.96 11.75" style="fill:#ed2124"/><polygon points="101.4 69.5 101.18 69.25 64.07 69.25 64.29 69.5 101.4 69.5" style="fill:#ed2124"/><polygon points="60.76 65.5 60.98 65.75 98.08 65.75 97.86 65.5 60.76 65.5" style="fill:#ed2124"/><polygon points="60.31 65 97.42 65 97.2 64.75 60.09 64.75 60.31 65" style="fill:#ed2124"/><polygon points="61.64 66.5 98.75 66.5 98.53 66.25 61.42 66.25 61.64 66.5" style="fill:#ed2124"/><polygon points="70.16 8 69.94 8.25 107.05 8.25 107.27 8 70.16 8" style="fill:#ed2124"/><polygon points="70.6 7.5 107.71 7.5 107.93 7.25 70.82 7.25 70.6 7.5" style="fill:#ed2124"/><polygon points="62.96 68 100.07 68 99.19 67 62.08 67 62.96 68" style="fill:#ed2124"/><polygon points="57.44 61.75 94.55 61.75 94.33 61.5 57.22 61.5 57.44 61.75" style="fill:#ed2124"/><polygon points="38.13 2.5 112.13 2.5 112.35 2.25 38.34 2.25 38.13 2.5" style="fill:#ed2124"/><polygon points="37.27 3.5 111.24 3.5 111.69 3 37.7 3 37.27 3.5" style="fill:#ed2124"/><polygon points="92.48 24.75 92.7 24.5 55.59 24.5 55.37 24.75 92.48 24.75" style="fill:#ed2124"/><polygon points="73.47 4.25 110.58 4.25 110.8 4 73.69 4 73.47 4.25" style="fill:#ed2124"/><polygon points="46.54 34.75 83.65 34.75 83.87 34.5 46.76 34.5 46.54 34.75" style="fill:#ed2124"/><polygon points="56.03 24 93.14 24 93.58 23.5 56.47 23.5 56.03 24" style="fill:#ed2124"/><polygon points="41.99 44.25 79.1 44.25 78.66 43.75 41.55 43.75 41.99 44.25" style="fill:#ed2124"/><polygon points="38.6 82.25 112.66 82.25 112.44 82 38.38 82 38.6 82.25" style="fill:#ed2124"/><polygon points="65.08 13.75 102.19 13.75 102.63 13.25 65.52 13.25 65.08 13.75" style="fill:#ed2124"/><polygon points="42.65 45 79.76 45 79.54 44.75 42.43 44.75 42.65 45" style="fill:#ed2124"/><polygon points="64.42 14.5 101.53 14.5 101.75 14.25 64.64 14.25 64.42 14.5" style="fill:#ed2124"/><polygon points="49.94 53.25 87.05 53.25 86.83 53 49.72 53 49.94 53.25" style="fill:#ed2124"/><polygon points="45.52 48.25 82.63 48.25 82.41 48 45.3 48 45.52 48.25" style="fill:#ed2124"/><polygon points="66.5 72 103.61 72 103.38 71.75 66.27 71.75 66.5 72" style="fill:#ed2124"/><polygon points="58.24 21.5 95.35 21.5 95.79 21 58.68 21 58.24 21.5" style="fill:#ed2124"/><polygon points="52.06 28.5 51.84 28.75 88.94 28.75 89.17 28.5 52.06 28.5" style="fill:#ed2124"/><polygon points="86.52 31.5 86.74 31.25 49.63 31.25 49.41 31.5 86.52 31.5" style="fill:#ed2124"/><polygon points="85.86 32.25 86.08 32 48.97 32 48.74 32.25 85.86 32.25" style="fill:#ed2124"/><polygon points="52.5 28 89.61 28 89.83 27.75 52.72 27.75 52.5 28" style="fill:#ed2124"/><polygon points="47.2 34 84.31 34 84.75 33.5 47.64 33.5 47.2 34" style="fill:#ed2124"/><polygon points="40.36 41.75 77.47 41.75 77.91 41.25 40.8 41.25 40.36 41.75" style="fill:#ed2124"/><polygon points="94.69 22.25 94.91 22 57.8 22 57.58 22.25 94.69 22.25" style="fill:#ed2124"/><polygon points="91.82 25.5 92.04 25.25 54.93 25.25 54.71 25.5 91.82 25.5" style="fill:#ed2124"/><polygon points="50.07 30.75 87.18 30.75 87.84 30 50.73 30 50.07 30.75" style="fill:#ed2124"/><polygon points="51.17 29.5 88.28 29.5 88.5 29.25 51.4 29.25 51.17 29.5" style="fill:#ed2124"/><polygon points="94.02 23 94.24 22.75 57.13 22.75 56.91 23 94.02 23" style="fill:#ed2124"/><polygon points="49.27 52.5 86.38 52.5 85.94 52 48.83 52 49.27 52.5" style="fill:#ed2124"/><polygon points="39.67 83.5 39.88 83.75 113.98 83.75 113.76 83.5 39.67 83.5" style="fill:#ed2124"/><polygon points="39.02 82.75 39.24 83 113.32 83 113.1 82.75 39.02 82.75" style="fill:#ed2124"/><polygon points="39.41 1 113.45 1 113.67 0.75 39.63 0.75 39.41 1" style="fill:#ed2124"/><polygon points="68.7 74.5 105.81 74.5 105.37 74 68.26 74 68.7 74.5" style="fill:#ed2124"/><polygon points="66.94 72.5 67.16 72.75 104.27 72.75 104.05 72.5 66.94 72.5" style="fill:#ed2124"/><polygon points="38.98 1.5 38.77 1.75 112.79 1.75 113.01 1.5 38.98 1.5" style="fill:#ed2124"/><polygon points="67.6 73.25 67.82 73.5 104.93 73.5 104.71 73.25 67.6 73.25" style="fill:#ed2124"/><polygon points="65.97 12.75 103.08 12.75 103.3 12.5 66.19 12.5 65.97 12.75" style="fill:#ed2124"/><polygon points="61.55 17.75 98.66 17.75 98.88 17.5 61.77 17.5 61.55 17.75" style="fill:#ed2124"/><polygon points="71.26 6.75 108.37 6.75 108.81 6.25 71.71 6.25 71.26 6.75" style="fill:#ed2124"/><polygon points="73.03 4.75 72.81 5 109.92 5 110.14 4.75 73.03 4.75" style="fill:#ed2124"/><polygon points="61.11 18.25 60.89 18.5 98 18.5 98.22 18.25 61.11 18.25" style="fill:#ed2124"/><polygon points="72.15 5.75 109.26 5.75 109.48 5.5 72.37 5.5 72.15 5.75" style="fill:#ed2124"/><polygon points="63.32 15.75 63.1 16 100.2 16 100.43 15.75 63.32 15.75" style="fill:#ed2124"/><polygon points="62.21 17 99.32 17 99.76 16.5 62.65 16.5 62.21 17" style="fill:#ed2124"/><polygon points="43.09 45.5 43.31 45.75 80.42 45.75 80.2 45.5 43.09 45.5" style="fill:#ed2124"/><polygon points="43.76 46.25 43.98 46.5 81.08 46.5 80.86 46.25 43.76 46.25" style="fill:#ed2124"/><polygon points="114.11 0.25 114.29 0.05 114.22 0.05 114.29 0 40.27 0 40.05 0.25 114.11 0.25" style="fill:#ed2124"/><polygon points="63.98 15 63.76 15.25 100.87 15.25 101.09 15 63.98 15" style="fill:#ed2124"/><polygon points="44.86 47.5 81.97 47.5 81.53 47 44.42 47 44.86 47.5" style="fill:#ed2124"/><polygon points="50.38 53.75 50.6 54 87.71 54 87.49 53.75 50.38 53.75" style="fill:#ed2124"/><polygon points="47.73 50.75 84.84 50.75 84.4 50.25 47.29 50.25 47.73 50.75" style="fill:#ed2124"/><polygon points="51.26 54.75 88.37 54.75 88.15 54.5 51.04 54.5 51.26 54.75" style="fill:#ed2124"/><polygon points="56.78 61 93.89 61 93.45 60.5 56.34 60.5 56.78 61" style="fill:#ed2124"/><polygon points="46.63 49.5 46.85 49.75 83.95 49.75 83.73 49.5 46.63 49.5" style="fill:#ed2124"/><polygon points="45.96 48.75 46.18 49 83.29 49 83.07 48.75 45.96 48.75" style="fill:#ed2124"/><polygon points="72.46 78.75 109.57 78.75 109.34 78.5 72.23 78.5 72.46 78.75" style="fill:#ed2124"/><polygon points="37.95 81.5 111.99 81.5 111.55 81 37.53 81 37.95 81.5" style="fill:#ed2124"/><polygon points="65.83 71.25 102.94 71.25 102.5 70.75 65.39 70.75 65.83 71.25" style="fill:#ed2124"/><polygon points="73.34 79.75 110.45 79.75 110.01 79.25 72.9 79.25 73.34 79.75" style="fill:#ed2124"/><polygon points="53.03 56.75 90.14 56.75 89.92 56.5 52.81 56.5 53.03 56.75" style="fill:#ed2124"/><polygon points="74 80.5 111.11 80.5 110.89 80.25 73.78 80.25 74 80.5" style="fill:#ed2124"/><polygon points="93.01 60 92.79 59.75 55.68 59.75 55.9 60 93.01 60" style="fill:#ed2124"/><polygon points="53.91 57.75 91.02 57.75 90.58 57.25 53.47 57.25 53.91 57.75" style="fill:#ed2124"/><polygon points="94.99 62.25 57.88 62.25 58.11 62.5 95.22 62.5 94.99 62.25" style="fill:#ed2124"/><polygon points="91.68 58.5 91.46 58.25 54.35 58.25 54.57 58.5 91.68 58.5" style="fill:#ed2124"/><polygon points="92.34 59.25 92.12 59 55.02 59 55.24 59.25 92.34 59.25" style="fill:#ed2124"/><polygon points="71.79 78 108.9 78 108.24 77.25 71.13 77.25 71.79 78" style="fill:#ed2124"/><polygon points="44.33 37.25 81.44 37.25 81.88 36.75 44.77 36.75 44.33 37.25" style="fill:#ed2124"/><polygon points="41.11 43.25 78.22 43.25 78 43 40.88 43 41.11 43.25" style="fill:#ed2124"/><polygon points="52.37 56 89.47 56 88.81 55.25 51.7 55.25 52.37 56" style="fill:#ed2124"/><polygon points="48.39 51.5 85.5 51.5 85.28 51.25 48.17 51.25 48.39 51.5" style="fill:#ed2124"/><polygon points="45.21 36.25 82.32 36.25 82.54 36 45.43 36 45.21 36.25" style="fill:#ed2124"/><polygon points="46.1 35.25 45.88 35.5 82.98 35.5 83.2 35.25 46.1 35.25" style="fill:#ed2124"/><polygon points="59.65 64.25 96.76 64.25 96.32 63.75 59.21 63.75 59.65 64.25" style="fill:#ed2124"/><polygon points="69.81 75.75 70.03 76 107.14 76 106.92 75.75 69.81 75.75" style="fill:#ed2124"/><polygon points="69.36 75.25 106.47 75.25 106.25 75 69.14 75 69.36 75.25" style="fill:#ed2124"/><polygon points="64.95 70.25 102.06 70.25 101.84 70 64.73 70 64.95 70.25" style="fill:#ed2124"/><polygon points="70.69 76.75 107.8 76.75 107.58 76.5 70.47 76.5 70.69 76.75" style="fill:#ed2124"/><polygon points="58.77 63.25 95.88 63.25 95.66 63 58.55 63 58.77 63.25" style="fill:#ed2124"/></g></g></svg>