<svg xmlns="http://www.w3.org/2000/svg" viewBox="0 0 1797 1131"><g id="Layer_5" data-name="Layer 5"><text transform="translate(401.02 785.33) scale(0.97 1)" style="font-size:100px;font-family:BankNueLinedRegular, BankNue Lined"><tspan style="letter-spacing:1.1999487869481118em">DIGI</tspan><tspan x="676.98" y="0" style="letter-spacing:1.079948358283929em">T</tspan><tspan x="849.17" y="0" style="letter-spacing:1.1999487869481118em">A</tspan><tspan x="1052.67" y="0">L</tspan></text><text/><text transform="translate(401.02 785.33) scale(0.97 1)" style="font-size:100px;font-family:BankNueSectionedRegular, BankNue Sectioned"><tspan style="letter-spacing:1.1999487869481118em">DIGI</tspan><tspan x="676.98" y="0" style="letter-spacing:1.079948358283929em">T</tspan><tspan x="849.17" y="0" style="letter-spacing:1.1999487869481118em">A</tspan><tspan x="1052.67" y="0">L</tspan></text><polygon points="1099.71 399.74 1248.14 399.74 1250.79 396.74 1102.36 396.74 1099.71 399.74"/><polygon points="1104.12 394.74 1252.56 394.74 1253.44 393.74 1105.01 393.74 1104.12 394.74"/><polygon points="1079.39 422.74 1227.83 422.74 1228.71 421.74 1080.28 421.74 1079.39 422.74"/><polygon points="1135.03 359.74 1283.47 359.74 1285.23 357.74 1136.8 357.74 1135.03 359.74"/><polygon points="1132.38 362.74 1280.82 362.74 1281.7 361.74 1133.26 361.74 1132.38 362.74"/><polygon points="1037.89 469.74 1186.33 469.74 1187.21 468.74 1038.77 468.74 1037.89 469.74"/><polygon points="1036.12 471.74 1035.24 472.74 1183.68 472.74 1184.56 471.74 1036.12 471.74"/><polygon points="1028.17 480.74 1176.61 480.74 1179.26 477.74 1030.82 477.74 1028.17 480.74"/><polygon points="1032.59 475.74 1181.03 475.74 1181.91 474.74 1033.47 474.74 1032.59 475.74"/><polygon points="1075.86 426.74 1224.3 426.74 1226.07 424.74 1077.63 424.74 1075.86 426.74"/><polygon points="1138.56 355.74 1287 355.74 1289.65 352.74 1141.21 352.74 1138.56 355.74"/><polygon points="1055.55 449.74 1203.99 449.74 1204.87 448.74 1056.43 448.74 1055.55 449.74"/><polygon points="1172.55 486.74 1024.11 486.74 1024.99 487.74 1173.43 487.74 1172.55 486.74"/><polygon points="1266.16 592.74 1265.27 591.74 1116.84 591.74 1117.72 592.74 1266.16 592.74"/><polygon points="1279.05 364.74 1130.62 364.74 1129.73 365.74 1278.17 365.74 1279.05 364.74"/><polygon points="1268.81 595.74 1267.92 594.74 1119.49 594.74 1120.37 595.74 1268.81 595.74"/><polygon points="1106.24 579.74 1107.12 580.74 1255.56 580.74 1254.68 579.74 1106.24 579.74"/><polygon points="1104.47 577.74 1252.91 577.74 1252.03 576.74 1103.59 576.74 1104.47 577.74"/><polygon points="1109.77 583.74 1258.21 583.74 1257.33 582.74 1108.89 582.74 1109.77 583.74"/><polygon points="1143.86 349.74 1142.98 350.74 1291.42 350.74 1292.3 349.74 1143.86 349.74"/><polygon points="1145.63 347.74 1294.07 347.74 1294.95 346.74 1146.51 346.74 1145.63 347.74"/><polygon points="1115.07 589.74 1263.51 589.74 1259.97 585.74 1111.54 585.74 1115.07 589.74"/><polygon points="1092.99 564.74 1241.43 564.74 1240.55 563.74 1092.11 563.74 1092.99 564.74"/><polygon points="1015.73 327.74 1311.73 327.74 1312.61 326.74 1016.59 326.74 1015.73 327.74"/><polygon points="1012.31 331.74 1308.19 331.74 1309.96 329.74 1014.02 329.74 1012.31 331.74"/><polygon points="1233.13 416.74 1234.01 415.74 1085.58 415.74 1084.69 416.74 1233.13 416.74"/><polygon points="1157.11 334.74 1305.55 334.74 1306.43 333.74 1157.99 333.74 1157.11 334.74"/><polygon points="1049.37 456.74 1197.81 456.74 1198.69 455.74 1050.25 455.74 1049.37 456.74"/><polygon points="1087.34 413.74 1235.78 413.74 1237.55 411.74 1089.11 411.74 1087.34 413.74"/><polygon points="1031.17 494.74 1179.61 494.74 1177.85 492.74 1029.41 492.74 1031.17 494.74"/><polygon points="1017.6 646.74 1313.85 646.74 1312.96 645.74 1016.75 645.74 1017.6 646.74"/><polygon points="1123.55 372.74 1271.99 372.74 1273.75 370.74 1125.32 370.74 1123.55 372.74"/><polygon points="1033.83 497.74 1182.26 497.74 1181.38 496.74 1032.94 496.74 1033.83 497.74"/><polygon points="1120.9 375.74 1269.34 375.74 1270.22 374.74 1121.78 374.74 1120.9 375.74"/><polygon points="1062.97 530.74 1211.4 530.74 1210.52 529.74 1062.08 529.74 1062.97 530.74"/><polygon points="1045.31 510.74 1193.74 510.74 1192.86 509.74 1044.42 509.74 1045.31 510.74"/><polygon points="1129.2 605.74 1277.64 605.74 1276.75 604.74 1128.32 604.74 1129.2 605.74"/><polygon points="1096.17 403.74 1244.61 403.74 1246.38 401.74 1097.94 401.74 1096.17 403.74"/><polygon points="1071.45 431.74 1070.56 432.74 1219 432.74 1219.88 431.74 1071.45 431.74"/><polygon points="1209.29 443.74 1210.17 442.74 1061.73 442.74 1060.85 443.74 1209.29 443.74"/><polygon points="1206.64 446.74 1207.52 445.74 1059.08 445.74 1058.2 446.74 1206.64 446.74"/><polygon points="1073.21 429.74 1221.65 429.74 1222.53 428.74 1074.1 428.74 1073.21 429.74"/><polygon points="1052.02 453.74 1200.46 453.74 1202.22 451.74 1053.79 451.74 1052.02 453.74"/><polygon points="1024.64 484.74 1173.08 484.74 1174.85 482.74 1026.41 482.74 1024.64 484.74"/><polygon points="1241.96 406.74 1242.85 405.74 1094.41 405.74 1093.52 406.74 1241.96 406.74"/><polygon points="1230.48 419.74 1231.36 418.74 1082.93 418.74 1082.04 419.74 1230.48 419.74"/><polygon points="1063.5 440.74 1211.94 440.74 1214.59 437.74 1066.15 437.74 1063.5 440.74"/><polygon points="1067.91 435.74 1216.35 435.74 1217.23 434.74 1068.8 434.74 1067.91 435.74"/><polygon points="1239.31 409.74 1240.19 408.74 1091.76 408.74 1090.88 409.74 1239.31 409.74"/><polygon points="1060.32 527.74 1208.76 527.74 1206.99 525.74 1058.55 525.74 1060.32 527.74"/><polygon points="1021.88 651.74 1022.74 652.74 1319.14 652.74 1318.26 651.74 1021.88 651.74"/><polygon points="1019.31 648.74 1020.17 649.74 1316.49 649.74 1315.61 648.74 1019.31 648.74"/><polygon points="1020.87 321.74 1317.03 321.74 1317.91 320.74 1021.72 320.74 1020.87 321.74"/><polygon points="1138.03 615.74 1286.47 615.74 1284.7 613.74 1136.27 613.74 1138.03 615.74"/><polygon points="1130.97 607.74 1131.85 608.74 1280.29 608.74 1279.4 607.74 1130.97 607.74"/><polygon points="1019.15 323.74 1018.3 324.74 1314.38 324.74 1315.26 323.74 1019.15 323.74"/><polygon points="1133.62 610.74 1134.5 611.74 1282.94 611.74 1282.05 610.74 1133.62 610.74"/><polygon points="1127.08 368.74 1275.52 368.74 1276.4 367.74 1127.96 367.74 1127.08 368.74"/><polygon points="1109.42 388.74 1257.86 388.74 1258.74 387.74 1110.3 387.74 1109.42 388.74"/><polygon points="1148.28 344.74 1296.71 344.74 1298.48 342.74 1150.04 342.74 1148.28 344.74"/><polygon points="1155.34 336.74 1154.46 337.74 1302.9 337.74 1303.78 336.74 1155.34 336.74"/><polygon points="1107.65 390.74 1106.77 391.74 1255.21 391.74 1256.09 390.74 1107.65 390.74"/><polygon points="1151.81 340.74 1300.25 340.74 1301.13 339.74 1152.69 339.74 1151.81 340.74"/><polygon points="1116.48 380.74 1115.6 381.74 1264.04 381.74 1264.92 380.74 1116.48 380.74"/><polygon points="1112.07 385.74 1260.51 385.74 1262.27 383.74 1113.84 383.74 1112.07 385.74"/><polygon points="1035.59 499.74 1036.47 500.74 1184.91 500.74 1184.03 499.74 1035.59 499.74"/><polygon points="1038.24 502.74 1039.12 503.74 1187.56 503.74 1186.68 502.74 1038.24 502.74"/><polygon points="1319.67 318.74 1320.37 317.95 1320.12 317.95 1320.39 317.74 1024.29 317.74 1023.43 318.74 1319.67 318.74"/><polygon points="1119.13 377.74 1118.25 378.74 1266.69 378.74 1267.57 377.74 1119.13 377.74"/><polygon points="1042.66 507.74 1191.09 507.74 1189.33 505.74 1040.89 505.74 1042.66 507.74"/><polygon points="1064.73 532.74 1065.62 533.74 1214.05 533.74 1213.17 532.74 1064.73 532.74"/><polygon points="1054.14 520.74 1202.57 520.74 1200.81 518.74 1052.37 518.74 1054.14 520.74"/><polygon points="1068.27 536.74 1216.7 536.74 1215.82 535.74 1067.38 535.74 1068.27 536.74"/><polygon points="1090.34 561.74 1238.78 561.74 1237.02 559.74 1088.58 559.74 1090.34 561.74"/><polygon points="1049.72 515.74 1050.6 516.74 1199.04 516.74 1198.16 515.74 1049.72 515.74"/><polygon points="1047.07 512.74 1047.95 513.74 1196.39 513.74 1195.51 512.74 1047.07 512.74"/><polygon points="1153.04 632.74 1301.48 632.74 1300.6 631.74 1152.16 631.74 1153.04 632.74"/><polygon points="1015.03 643.74 1311.2 643.74 1309.43 641.74 1013.32 641.74 1015.03 643.74"/><polygon points="1126.55 602.74 1274.99 602.74 1273.22 600.74 1124.79 600.74 1126.55 602.74"/><polygon points="1156.58 636.74 1305.01 636.74 1303.25 634.74 1154.81 634.74 1156.58 636.74"/><polygon points="1075.33 544.74 1223.77 544.74 1222.88 543.74 1074.45 543.74 1075.33 544.74"/><polygon points="1159.22 639.74 1307.66 639.74 1306.78 638.74 1158.34 638.74 1159.22 639.74"/><polygon points="1235.25 557.74 1234.37 556.74 1085.93 556.74 1086.81 557.74 1235.25 557.74"/><polygon points="1078.86 548.74 1227.3 548.74 1225.53 546.74 1077.1 546.74 1078.86 548.74"/><polygon points="1243.2 566.74 1094.76 566.74 1095.64 567.74 1244.08 567.74 1243.2 566.74"/><polygon points="1229.95 551.74 1229.07 550.74 1080.63 550.74 1081.51 551.74 1229.95 551.74"/><polygon points="1232.6 554.74 1231.72 553.74 1083.28 553.74 1084.16 554.74 1232.6 554.74"/><polygon points="1150.39 629.74 1298.83 629.74 1296.18 626.74 1147.74 626.74 1150.39 629.74"/><polygon points="1040.54 466.74 1188.97 466.74 1190.74 464.74 1042.3 464.74 1040.54 466.74"/><polygon points="1027.64 490.74 1176.08 490.74 1175.2 489.74 1026.76 489.74 1027.64 490.74"/><polygon points="1072.68 541.74 1221.12 541.74 1218.47 538.74 1070.03 538.74 1072.68 541.74"/><polygon points="1056.79 523.74 1205.22 523.74 1204.34 522.74 1055.9 522.74 1056.79 523.74"/><polygon points="1044.07 462.74 1192.51 462.74 1193.39 461.74 1044.95 461.74 1044.07 462.74"/><polygon points="1047.6 458.74 1046.72 459.74 1195.16 459.74 1196.04 458.74 1047.6 458.74"/><polygon points="1101.82 574.74 1250.26 574.74 1248.49 572.74 1100.06 572.74 1101.82 574.74"/><polygon points="1142.45 620.74 1143.33 621.74 1291.77 621.74 1290.88 620.74 1142.45 620.74"/><polygon points="1140.68 618.74 1289.12 618.74 1288.23 617.74 1139.8 617.74 1140.68 618.74"/><polygon points="1123.02 598.74 1271.46 598.74 1270.57 597.74 1122.13 597.74 1123.02 598.74"/><polygon points="1145.98 624.74 1294.42 624.74 1293.53 623.74 1145.1 623.74 1145.98 624.74"/><polygon points="1098.29 570.74 1246.73 570.74 1245.85 569.74 1097.41 569.74 1098.29 570.74"/><polygon points="600.01 427.74 601.06 428.74 640.95 428.73 642 427.73 600.01 427.74"/><polygon points="603.15 430.74 604.2 431.74 637.82 431.73 638.86 430.73 603.15 430.74"/><polygon points="606.29 433.74 607.33 434.74 634.68 434.73 635.73 433.73 606.29 433.74"/><polygon points="590.6 418.75 591.65 419.74 650.36 419.73 651.4 418.73 590.6 418.75"/><polygon points="594.79 422.74 647.22 422.73 648.27 421.73 593.74 421.74 594.79 422.74"/><polygon points="596.88 424.74 597.92 425.74 644.09 425.73 645.13 424.73 596.88 424.74"/><polygon points="686.93 384.72 688.48 383.24 553.51 383.27 555.06 384.75 686.93 384.72"/><polygon points="613.61 440.74 614.65 441.74 627.37 441.73 628.41 440.73 613.61 440.74"/><polygon points="619.88 446.74 620.92 447.74 621.1 447.74 622.14 446.74 619.88 446.74"/><polygon points="616.74 443.74 617.79 444.74 624.23 444.74 625.28 443.74 616.74 443.74"/><polygon points="609.42 436.74 611.51 438.74 630.5 438.73 632.59 436.73 609.42 436.74"/><polygon points="563.42 392.75 564.47 393.75 677.52 393.72 678.57 392.72 563.42 392.75"/><polygon points="570.74 399.75 571.78 400.75 670.21 400.72 671.25 399.72 570.74 399.75"/><polygon points="566.56 395.75 568.65 397.75 673.34 397.72 675.43 395.72 566.56 395.75"/><polygon points="587.47 415.75 588.51 416.75 653.49 416.73 654.53 415.73 587.47 415.75"/><polygon points="560.28 389.75 561.33 390.75 680.66 390.72 681.7 389.72 560.28 389.75"/><polygon points="557.15 386.75 558.19 387.75 683.79 387.72 684.84 386.72 557.15 386.75"/><polygon points="580.15 408.75 582.24 410.75 659.76 410.73 661.85 408.73 580.15 408.75"/><polygon points="573.88 402.75 574.92 403.75 667.07 403.72 668.12 402.72 573.88 402.75"/><polygon points="584.33 412.75 585.38 413.75 656.63 413.73 657.67 412.73 584.33 412.75"/><polygon points="577.01 405.75 578.06 406.75 663.94 406.72 664.98 405.72 577.01 405.75"/><polygon points="574.9 568.74 573.86 569.74 667.55 569.74 666.5 568.74 574.9 568.74"/><polygon points="581.17 562.74 580.13 563.74 661.27 563.74 660.23 562.74 581.17 562.74"/><polygon points="585.36 558.74 583.27 560.74 658.14 560.74 656.05 558.74 585.36 558.74"/><polygon points="571.77 571.74 569.68 573.74 671.73 573.74 669.64 571.74 571.77 571.74"/><polygon points="561.32 581.74 560.27 582.74 681.13 582.74 680.09 581.74 561.32 581.74"/><polygon points="558.18 584.74 556.09 586.74 685.32 586.74 683.22 584.74 558.18 584.74"/><polygon points="567.59 575.74 566.54 576.74 674.86 576.74 673.82 575.74 567.59 575.74"/><polygon points="553.22 589.48 688.19 589.48 687.4 588.74 554 588.74 553.22 589.48"/><polygon points="564.45 578.74 563.41 579.74 678 579.74 676.95 578.74 564.45 578.74"/><polygon points="588.49 555.74 587.45 556.74 653.96 556.74 652.91 555.74 588.49 555.74"/><polygon points="578.04 565.74 576.99 566.74 664.41 566.74 663.37 565.74 578.04 565.74"/><polygon points="607.31 537.74 606.26 538.74 635.14 538.74 634.1 537.74 607.31 537.74"/><polygon points="610.44 534.74 609.4 535.74 632.01 535.74 630.96 534.74 610.44 534.74"/><polygon points="614.62 530.74 612.53 532.74 628.87 532.74 626.78 530.74 614.62 530.74"/><polygon points="617.76 527.74 616.71 528.74 624.69 528.74 623.65 527.74 617.76 527.74"/><polygon points="619.85 525.74 621.56 525.74 620.7 524.92 619.85 525.74"/><polygon points="597.9 546.74 596.85 547.74 644.55 547.74 643.51 546.74 597.9 546.74"/><polygon points="591.63 552.74 590.58 553.74 650.82 553.74 649.78 552.74 591.63 552.74"/><polygon points="604.17 540.74 603.13 541.74 638.28 541.74 637.24 540.74 604.17 540.74"/><polygon points="594.76 549.74 593.72 550.74 647.69 550.74 646.64 549.74 594.76 549.74"/><polygon points="599.99 544.74 641.42 544.74 640.37 543.74 601.03 543.74 599.99 544.74"/><polygon points="789.71 399.74 938.14 399.74 940.79 396.74 792.36 396.74 789.71 399.74"/><polygon points="794.12 394.74 942.56 394.74 943.44 393.74 795 393.74 794.12 394.74"/><polygon points="769.39 422.74 917.83 422.74 918.72 421.74 770.28 421.74 769.39 422.74"/><polygon points="825.03 359.74 973.47 359.74 975.23 357.74 826.8 357.74 825.03 359.74"/><polygon points="822.38 362.74 970.82 362.74 971.7 361.74 823.26 361.74 822.38 362.74"/><polygon points="727.89 469.74 876.33 469.74 877.21 468.74 728.77 468.74 727.89 469.74"/><polygon points="726.12 471.74 725.24 472.74 873.68 472.74 874.56 471.74 726.12 471.74"/><polygon points="718.17 480.74 866.61 480.74 869.26 477.74 720.82 477.74 718.17 480.74"/><polygon points="722.59 475.74 871.03 475.74 871.91 474.74 723.47 474.74 722.59 475.74"/><polygon points="765.86 426.74 914.3 426.74 916.07 424.74 767.63 424.74 765.86 426.74"/><polygon points="828.56 355.74 977 355.74 979.65 352.74 831.21 352.74 828.56 355.74"/><polygon points="745.55 449.74 893.99 449.74 894.87 448.74 746.43 448.74 745.55 449.74"/><polygon points="862.55 486.74 714.11 486.74 714.99 487.74 863.43 487.74 862.55 486.74"/><polygon points="956.16 592.74 955.27 591.74 806.84 591.74 807.72 592.74 956.16 592.74"/><polygon points="969.05 364.74 820.62 364.74 819.73 365.74 968.17 365.74 969.05 364.74"/><polygon points="958.81 595.74 957.92 594.74 809.49 594.74 810.37 595.74 958.81 595.74"/><polygon points="796.24 579.74 797.12 580.74 945.56 580.74 944.68 579.74 796.24 579.74"/><polygon points="794.47 577.74 942.91 577.74 942.03 576.74 793.59 576.74 794.47 577.74"/><polygon points="799.77 583.74 948.21 583.74 947.33 582.74 798.89 582.74 799.77 583.74"/><polygon points="833.86 349.74 832.98 350.74 981.42 350.74 982.3 349.74 833.86 349.74"/><polygon points="835.63 347.74 984.07 347.74 984.95 346.74 836.51 346.74 835.63 347.74"/><polygon points="805.07 589.74 953.51 589.74 949.98 585.74 801.54 585.74 805.07 589.74"/><polygon points="782.99 564.74 931.43 564.74 930.55 563.74 782.11 563.74 782.99 564.74"/><polygon points="705.73 327.74 1001.73 327.74 1002.61 326.74 706.59 326.74 705.73 327.74"/><polygon points="702.31 331.74 998.2 331.74 999.96 329.74 704.02 329.74 702.31 331.74"/><polygon points="923.13 416.74 924.01 415.74 775.58 415.74 774.69 416.74 923.13 416.74"/><polygon points="847.11 334.74 995.55 334.74 996.43 333.74 847.99 333.74 847.11 334.74"/><polygon points="739.37 456.74 887.81 456.74 888.69 455.74 740.25 455.74 739.37 456.74"/><polygon points="777.34 413.74 925.78 413.74 927.55 411.74 779.11 411.74 777.34 413.74"/><polygon points="721.17 494.74 869.61 494.74 867.85 492.74 719.41 492.74 721.17 494.74"/><polygon points="707.6 646.74 1003.85 646.74 1002.96 645.74 706.75 645.74 707.6 646.74"/><polygon points="813.55 372.74 961.99 372.74 963.75 370.74 815.32 370.74 813.55 372.74"/><polygon points="723.83 497.74 872.26 497.74 871.38 496.74 722.94 496.74 723.83 497.74"/><polygon points="810.9 375.74 959.34 375.74 960.22 374.74 811.78 374.74 810.9 375.74"/><polygon points="752.97 530.74 901.4 530.74 900.52 529.74 752.08 529.74 752.97 530.74"/><polygon points="735.3 510.74 883.74 510.74 882.86 509.74 734.42 509.74 735.3 510.74"/><polygon points="819.2 605.74 967.64 605.74 966.75 604.74 818.32 604.74 819.2 605.74"/><polygon points="786.17 403.74 934.61 403.74 936.38 401.74 787.94 401.74 786.17 403.74"/><polygon points="761.45 431.74 760.56 432.74 909 432.74 909.88 431.74 761.45 431.74"/><polygon points="899.29 443.74 900.17 442.74 751.73 442.74 750.85 443.74 899.29 443.74"/><polygon points="896.64 446.74 897.52 445.74 749.08 445.74 748.2 446.74 896.64 446.74"/><polygon points="763.21 429.74 911.65 429.74 912.53 428.74 764.1 428.74 763.21 429.74"/><polygon points="742.02 453.74 890.46 453.74 892.22 451.74 743.78 451.74 742.02 453.74"/><polygon points="714.64 484.74 863.08 484.74 864.85 482.74 716.41 482.74 714.64 484.74"/><polygon points="931.96 406.74 932.85 405.74 784.41 405.74 783.52 406.74 931.96 406.74"/><polygon points="920.48 419.74 921.36 418.74 772.93 418.74 772.04 419.74 920.48 419.74"/><polygon points="753.5 440.74 901.94 440.74 904.59 437.74 756.15 437.74 753.5 440.74"/><polygon points="757.91 435.74 906.35 435.74 907.24 434.74 758.8 434.74 757.91 435.74"/><polygon points="929.31 409.74 930.2 408.74 781.76 408.74 780.88 409.74 929.31 409.74"/><polygon points="750.32 527.74 898.75 527.74 896.99 525.74 748.55 525.74 750.32 527.74"/><polygon points="711.88 651.74 712.74 652.74 1009.14 652.74 1008.26 651.74 711.88 651.74"/><polygon points="709.31 648.74 710.17 649.74 1006.49 649.74 1005.61 648.74 709.31 648.74"/><polygon points="710.87 321.74 1007.03 321.74 1007.91 320.74 711.72 320.74 710.87 321.74"/><polygon points="828.03 615.74 976.47 615.74 974.7 613.74 826.26 613.74 828.03 615.74"/><polygon points="820.97 607.74 821.85 608.74 970.29 608.74 969.4 607.74 820.97 607.74"/><polygon points="709.15 323.74 708.3 324.74 1004.38 324.74 1005.26 323.74 709.15 323.74"/><polygon points="823.62 610.74 824.5 611.74 972.94 611.74 972.05 610.74 823.62 610.74"/><polygon points="817.08 368.74 965.52 368.74 966.4 367.74 817.97 367.74 817.08 368.74"/><polygon points="799.42 388.74 947.86 388.74 948.74 387.74 800.3 387.74 799.42 388.74"/><polygon points="838.28 344.74 986.71 344.74 988.48 342.74 840.04 342.74 838.28 344.74"/><polygon points="845.34 336.74 844.46 337.74 992.9 337.74 993.78 336.74 845.34 336.74"/><polygon points="797.65 390.74 796.77 391.74 945.21 391.74 946.09 390.74 797.65 390.74"/><polygon points="841.81 340.74 990.25 340.74 991.13 339.74 842.69 339.74 841.81 340.74"/><polygon points="806.49 380.74 805.6 381.74 954.04 381.74 954.92 380.74 806.49 380.74"/><polygon points="802.07 385.74 950.51 385.74 952.27 383.74 803.84 383.74 802.07 385.74"/><polygon points="725.59 499.74 726.47 500.74 874.91 500.74 874.03 499.74 725.59 499.74"/><polygon points="728.24 502.74 729.12 503.74 877.56 503.74 876.68 502.74 728.24 502.74"/><polygon points="1009.67 318.74 1010.37 317.95 1010.12 317.95 1010.39 317.74 714.29 317.74 713.43 318.74 1009.67 318.74"/><polygon points="809.13 377.74 808.25 378.74 956.69 378.74 957.57 377.74 809.13 377.74"/><polygon points="732.66 507.74 881.09 507.74 879.33 505.74 730.89 505.74 732.66 507.74"/><polygon points="754.73 532.74 755.62 533.74 904.05 533.74 903.17 532.74 754.73 532.74"/><polygon points="744.14 520.74 892.57 520.74 890.81 518.74 742.37 518.74 744.14 520.74"/><polygon points="758.27 536.74 906.7 536.74 905.82 535.74 757.38 535.74 758.27 536.74"/><polygon points="780.34 561.74 928.78 561.74 927.01 559.74 778.58 559.74 780.34 561.74"/><polygon points="739.72 515.74 740.6 516.74 889.04 516.74 888.16 515.74 739.72 515.74"/><polygon points="737.07 512.74 737.95 513.74 886.39 513.74 885.51 512.74 737.07 512.74"/><polygon points="843.04 632.74 991.48 632.74 990.6 631.74 842.16 631.74 843.04 632.74"/><polygon points="705.03 643.74 1001.2 643.74 999.43 641.74 703.32 641.74 705.03 643.74"/><polygon points="816.55 602.74 964.99 602.74 963.22 600.74 814.78 600.74 816.55 602.74"/><polygon points="846.58 636.74 995.01 636.74 993.25 634.74 844.81 634.74 846.58 636.74"/><polygon points="765.33 544.74 913.77 544.74 912.88 543.74 764.45 543.74 765.33 544.74"/><polygon points="849.23 639.74 997.66 639.74 996.78 638.74 848.34 638.74 849.23 639.74"/><polygon points="925.25 557.74 924.37 556.74 775.93 556.74 776.81 557.74 925.25 557.74"/><polygon points="768.86 548.74 917.3 548.74 915.53 546.74 767.1 546.74 768.86 548.74"/><polygon points="933.2 566.74 784.76 566.74 785.64 567.74 934.08 567.74 933.2 566.74"/><polygon points="919.95 551.74 919.07 550.74 770.63 550.74 771.51 551.74 919.95 551.74"/><polygon points="922.6 554.74 921.72 553.74 773.28 553.74 774.16 554.74 922.6 554.74"/><polygon points="840.39 629.74 988.83 629.74 986.18 626.74 837.75 626.74 840.39 629.74"/><polygon points="730.54 466.74 878.98 466.74 880.74 464.74 732.3 464.74 730.54 466.74"/><polygon points="717.64 490.74 866.08 490.74 865.2 489.74 716.76 489.74 717.64 490.74"/><polygon points="762.68 541.74 911.12 541.74 908.47 538.74 760.03 538.74 762.68 541.74"/><polygon points="746.78 523.74 895.22 523.74 894.34 522.74 745.9 522.74 746.78 523.74"/><polygon points="734.07 462.74 882.51 462.74 883.39 461.74 734.95 461.74 734.07 462.74"/><polygon points="737.6 458.74 736.72 459.74 885.16 459.74 886.04 458.74 737.6 458.74"/><polygon points="791.82 574.74 940.26 574.74 938.5 572.74 790.06 572.74 791.82 574.74"/><polygon points="832.45 620.74 833.33 621.74 981.77 621.74 980.88 620.74 832.45 620.74"/><polygon points="830.68 618.74 979.12 618.74 978.24 617.74 829.8 617.74 830.68 618.74"/><polygon points="813.02 598.74 961.46 598.74 960.57 597.74 812.13 597.74 813.02 598.74"/><polygon points="835.98 624.74 984.42 624.74 983.53 623.74 835.1 623.74 835.98 624.74"/><polygon points="788.29 570.74 936.73 570.74 935.85 569.74 787.41 569.74 788.29 570.74"/></g></svg>