<?xml version="1.0" encoding="UTF-8" standalone="no"?>
<!DOCTYPE svg PUBLIC "-//W3C//DTD SVG 1.1//EN" "http://www.w3.org/Graphics/SVG/1.1/DTD/svg11.dtd">
<svg version="1.1" xmlns="http://www.w3.org/2000/svg" xmlns:xlink="http://www.w3.org/1999/xlink" preserveAspectRatio="xMidYMid meet" viewBox="0 0 53.87 23.1">
<polygon points="37.9 5.82 47.88 5.82 48.06 5.61 38.07 5.61 37.9 5.82" style="fill:#ed2124"/>
<polygon points="38.19 5.48 48.18 5.48 48.24 5.41 38.25 5.41 38.19 5.48" style="fill:#ed2124"/>
<polygon points="36.53 7.36 46.52 7.36 46.58 7.3 36.59 7.3 36.53 7.36" style="fill:#ed2124"/>
<polygon points="40.27 3.12 50.26 3.12 50.38 2.99 40.39 2.99 40.27 3.12" style="fill:#ed2124"/>
<polygon points="40.09 3.33 50.08 3.33 50.14 3.26 40.15 3.26 40.09 3.33" style="fill:#ed2124"/>
<polygon points="33.74 10.53 43.72 10.53 43.78 10.46 33.8 10.46 33.74 10.53" style="fill:#ed2124"/>
<polygon points="33.62 10.66 33.56 10.73 43.55 10.73 43.6 10.66 33.62 10.66" style="fill:#ed2124"/>
<polygon points="33.08 11.27 43.07 11.27 43.25 11.06 33.26 11.06 33.08 11.27" style="fill:#ed2124"/>
<polygon points="33.38 10.93 43.37 10.93 43.43 10.86 33.44 10.86 33.38 10.93" style="fill:#ed2124"/>
<polygon points="36.29 7.63 46.28 7.63 46.4 7.5 36.41 7.5 36.29 7.63" style="fill:#ed2124"/>
<polygon points="40.51 2.85 50.5 2.85 50.68 2.65 40.69 2.65 40.51 2.85" style="fill:#ed2124"/>
<polygon points="34.92 9.18 44.91 9.18 44.97 9.11 34.98 9.11 34.92 9.18" style="fill:#ed2124"/>
<polygon points="42.8 11.67 32.81 11.67 32.87 11.74 42.86 11.74 42.8 11.67" style="fill:#ed2124"/>
<polygon points="49.09 18.8 49.04 18.73 39.05 18.73 39.11 18.8 49.09 18.8" style="fill:#ed2124"/>
<polygon points="49.96 3.46 39.98 3.46 39.92 3.53 49.9 3.53 49.96 3.46" style="fill:#ed2124"/>
<polygon points="49.27 19 49.21 18.94 39.23 18.94 39.29 19 49.27 19" style="fill:#ed2124"/>
<polygon points="38.34 17.93 38.4 17.99 48.38 17.99 48.32 17.93 38.34 17.93" style="fill:#ed2124"/>
<polygon points="38.22 17.79 48.2 17.79 48.14 17.73 38.16 17.73 38.22 17.79" style="fill:#ed2124"/>
<polygon points="38.57 18.2 48.56 18.2 48.5 18.13 38.51 18.13 38.57 18.2" style="fill:#ed2124"/>
<polygon points="40.87 2.45 40.81 2.52 50.8 2.52 50.85 2.45 40.87 2.45" style="fill:#ed2124"/>
<polygon points="40.98 2.32 50.97 2.32 51.03 2.25 41.05 2.25 40.98 2.32" style="fill:#ed2124"/>
<polygon points="38.93 18.6 48.92 18.6 48.68 18.33 38.69 18.33 38.93 18.6" style="fill:#ed2124"/>
<polygon points="37.44 16.92 47.43 16.92 47.37 16.85 37.38 16.85 37.44 16.92" style="fill:#ed2124"/>
<polygon points="32.24 0.97 52.16 0.97 52.22 0.9 32.3 0.9 32.24 0.97" style="fill:#ed2124"/>
<polygon points="32.02 1.24 51.92 1.24 52.04 1.11 32.13 1.11 32.02 1.24" style="fill:#ed2124"/>
<polygon points="46.87 6.96 46.93 6.89 36.95 6.89 36.88 6.96 46.87 6.96" style="fill:#ed2124"/>
<polygon points="41.76 1.44 51.74 1.44 51.8 1.38 41.82 1.38 41.76 1.44" style="fill:#ed2124"/>
<polygon points="34.51 9.65 44.5 9.65 44.56 9.58 34.57 9.58 34.51 9.65" style="fill:#ed2124"/>
<polygon points="37.06 6.76 47.05 6.76 47.17 6.62 37.18 6.62 37.06 6.76" style="fill:#ed2124"/>
<polygon points="33.28 12.21 43.27 12.21 43.15 12.07 33.17 12.07 33.28 12.21" style="fill:#ed2124"/>
<polygon points="32.37 22.43 52.3 22.43 52.24 22.37 32.31 22.37 32.37 22.43" style="fill:#ed2124"/>
<polygon points="39.5 4 49.49 4 49.61 3.86 39.62 3.86 39.5 4" style="fill:#ed2124"/>
<polygon points="33.46 12.41 43.45 12.41 43.39 12.34 33.4 12.34 33.46 12.41" style="fill:#ed2124"/>
<polygon points="39.32 4.2 49.31 4.2 49.37 4.13 39.38 4.13 39.32 4.2" style="fill:#ed2124"/>
<polygon points="35.42 14.63 45.41 14.63 45.35 14.56 35.36 14.56 35.42 14.63" style="fill:#ed2124"/>
<polygon points="34.23 13.28 44.22 13.28 44.16 13.22 34.18 13.22 34.23 13.28" style="fill:#ed2124"/>
<polygon points="39.88 19.68 49.87 19.68 49.81 19.61 39.82 19.61 39.88 19.68" style="fill:#ed2124"/>
<polygon points="37.66 6.08 47.65 6.08 47.76 6 37.78 6 37.66 6.08" style="fill:#ed2124"/>
<polygon points="35.99 7.97 35.94 8.04 45.92 8.04 45.98 7.97 35.99 7.97" style="fill:#ed2124"/>
<polygon points="45.27 8.78 45.33 8.71 35.34 8.71 35.28 8.78 45.27 8.78" style="fill:#ed2124"/>
<polygon points="45.09 8.98 45.15 8.91 35.16 8.91 35.1 8.98 45.09 8.98" style="fill:#ed2124"/>
<polygon points="36.11 7.83 46.1 7.83 46.16 7.77 36.17 7.77 36.11 7.83" style="fill:#ed2124"/>
<polygon points="34.69 9.45 44.67 9.45 44.79 9.31 34.81 9.31 34.69 9.45" style="fill:#ed2124"/>
<polygon points="32.84 11.54 42.83 11.54 42.95 11.4 32.96 11.4 32.84 11.54" style="fill:#ed2124"/>
<polygon points="47.47 6.29 47.53 6.22 37.54 6.22 37.48 6.29 47.47 6.29" style="fill:#ed2124"/>
<polygon points="46.7 7.16 46.75 7.09 36.77 7.09 36.71 7.16 46.7 7.16" style="fill:#ed2124"/>
<polygon points="35.46 8.57 45.45 8.57 45.63 8.37 35.64 8.37 35.46 8.57" style="fill:#ed2124"/>
<polygon points="35.76 8.24 45.74 8.24 45.8 8.17 35.82 8.17 35.76 8.24" style="fill:#ed2124"/>
<polygon points="47.29 6.49 47.35 6.42 37.36 6.42 37.3 6.49 47.29 6.49" style="fill:#ed2124"/>
<polygon points="35.24 14.43 45.23 14.43 45.11 14.29 35.13 14.29 35.24 14.43" style="fill:#ed2124"/>
<polygon points="32.66 22.77 32.72 22.84 52.66 22.84 52.6 22.77 32.66 22.77" style="fill:#ed2124"/>
<polygon points="32.49 22.57 32.54 22.64 52.48 22.64 52.42 22.57 32.49 22.57" style="fill:#ed2124"/>
<polygon points="32.59 0.57 52.52 0.57 52.58 0.5 32.65 0.5 32.59 0.57" style="fill:#ed2124"/>
<polygon points="40.47 20.35 50.46 20.35 50.34 20.21 40.35 20.21 40.47 20.35" style="fill:#ed2124"/>
<polygon points="40 19.81 40.06 19.88 50.05 19.88 49.99 19.81 40 19.81" style="fill:#ed2124"/>
<polygon points="32.48 0.7 32.42 0.77 52.34 0.77 52.4 0.7 32.48 0.7" style="fill:#ed2124"/>
<polygon points="40.18 20.01 40.24 20.08 50.22 20.08 50.16 20.01 40.18 20.01" style="fill:#ed2124"/>
<polygon points="39.74 3.73 49.73 3.73 49.78 3.66 39.8 3.66 39.74 3.73" style="fill:#ed2124"/>
<polygon points="38.55 5.08 48.54 5.08 48.6 5.01 38.61 5.01 38.55 5.08" style="fill:#ed2124"/>
<polygon points="41.16 2.12 51.15 2.12 51.27 1.98 41.28 1.98 41.16 2.12" style="fill:#ed2124"/>
<polygon points="41.64 1.58 41.58 1.64 51.57 1.64 51.63 1.58 41.64 1.58" style="fill:#ed2124"/>
<polygon points="38.43 5.21 38.37 5.28 48.36 5.28 48.42 5.21 38.43 5.21" style="fill:#ed2124"/>
<polygon points="41.4 1.85 51.39 1.85 51.45 1.78 41.46 1.78 41.4 1.85" style="fill:#ed2124"/>
<polygon points="39.02 4.54 38.97 4.6 48.95 4.6 49.01 4.54 39.02 4.54" style="fill:#ed2124"/>
<polygon points="38.73 4.87 48.72 4.87 48.83 4.74 38.85 4.74 38.73 4.87" style="fill:#ed2124"/>
<polygon points="33.58 12.54 33.64 12.61 43.63 12.61 43.57 12.54 33.58 12.54" style="fill:#ed2124"/>
<polygon points="33.76 12.75 33.82 12.81 43.81 12.81 43.75 12.75 33.76 12.75" style="fill:#ed2124"/>
<polygon points="52.7 0.36 52.74 0.31 52.73 0.31 52.74 0.3 32.82 0.3 32.76 0.36 52.7 0.36" style="fill:#ed2124"/>
<polygon points="39.2 4.33 39.14 4.4 49.13 4.4 49.19 4.33 39.2 4.33" style="fill:#ed2124"/>
<polygon points="34.06 13.08 44.04 13.08 43.93 12.95 33.94 12.95 34.06 13.08" style="fill:#ed2124"/>
<polygon points="35.54 14.76 35.6 14.83 45.59 14.83 45.53 14.76 35.54 14.76" style="fill:#ed2124"/>
<polygon points="34.83 13.96 44.82 13.96 44.7 13.82 34.71 13.82 34.83 13.96" style="fill:#ed2124"/>
<polygon points="35.78 15.03 45.77 15.03 45.71 14.97 35.72 14.97 35.78 15.03" style="fill:#ed2124"/>
<polygon points="37.27 16.72 47.25 16.72 47.13 16.58 37.15 16.58 37.27 16.72" style="fill:#ed2124"/>
<polygon points="34.53 13.62 34.59 13.69 44.58 13.69 44.52 13.62 34.53 13.62" style="fill:#ed2124"/>
<polygon points="34.35 13.42 34.41 13.49 44.4 13.49 44.34 13.42 34.35 13.42" style="fill:#ed2124"/>
<polygon points="41.48 21.49 51.47 21.49 51.41 21.43 41.42 21.43 41.48 21.49" style="fill:#ed2124"/>
<polygon points="32.2 22.23 52.13 22.23 52.01 22.1 32.08 22.1 32.2 22.23" style="fill:#ed2124"/>
<polygon points="39.7 19.47 49.69 19.47 49.57 19.34 39.58 19.34 39.7 19.47" style="fill:#ed2124"/>
<polygon points="41.72 21.76 51.71 21.76 51.59 21.63 41.6 21.63 41.72 21.76" style="fill:#ed2124"/>
<polygon points="36.26 15.57 46.24 15.57 46.18 15.5 36.2 15.5 36.26 15.57" style="fill:#ed2124"/>
<polygon points="41.9 21.96 51.89 21.96 51.83 21.9 41.84 21.9 41.9 21.96" style="fill:#ed2124"/>
<polygon points="47.02 16.45 46.96 16.38 36.97 16.38 37.03 16.45 47.02 16.45" style="fill:#ed2124"/>
<polygon points="36.49 15.84 46.48 15.84 46.36 15.71 36.37 15.71 36.49 15.84" style="fill:#ed2124"/>
<polygon points="47.55 17.05 37.56 17.05 37.62 17.12 47.61 17.12 47.55 17.05" style="fill:#ed2124"/>
<polygon points="46.66 16.04 46.6 15.97 36.61 15.97 36.67 16.04 46.66 16.04" style="fill:#ed2124"/>
<polygon points="46.84 16.25 46.78 16.18 36.79 16.18 36.85 16.25 46.84 16.25" style="fill:#ed2124"/>
<polygon points="41.31 21.29 51.29 21.29 51.12 21.09 41.13 21.09 41.31 21.29" style="fill:#ed2124"/>
<polygon points="33.91 10.32 43.9 10.32 44.02 10.19 34.03 10.19 33.91 10.32" style="fill:#ed2124"/>
<polygon points="33.05 11.94 43.03 11.94 42.98 11.87 32.99 11.87 33.05 11.94" style="fill:#ed2124"/>
<polygon points="36.08 15.37 46.06 15.37 45.89 15.17 35.9 15.17 36.08 15.37" style="fill:#ed2124"/>
<polygon points="35.01 14.16 44.99 14.16 44.94 14.09 34.95 14.09 35.01 14.16" style="fill:#ed2124"/>
<polygon points="34.15 10.05 44.14 10.05 44.2 9.99 34.21 9.99 34.15 10.05" style="fill:#ed2124"/>
<polygon points="34.39 9.79 34.33 9.85 44.32 9.85 44.38 9.79 34.39 9.79" style="fill:#ed2124"/>
<polygon points="38.04 17.59 48.03 17.59 47.91 17.46 37.92 17.46 38.04 17.59" style="fill:#ed2124"/>
<polygon points="40.77 20.68 40.83 20.75 50.82 20.75 50.76 20.68 40.77 20.68" style="fill:#ed2124"/>
<polygon points="40.65 20.55 50.64 20.55 50.58 20.48 40.59 20.48 40.65 20.55" style="fill:#ed2124"/>
<polygon points="39.46 19.2 49.45 19.2 49.39 19.14 39.41 19.14 39.46 19.2" style="fill:#ed2124"/>
<polygon points="41.01 20.95 51 20.95 50.94 20.89 40.95 20.89 41.01 20.95" style="fill:#ed2124"/>
<polygon points="37.8 17.32 47.79 17.32 47.73 17.25 37.74 17.25 37.8 17.32" style="fill:#ed2124"/>
<polygon points="4.27 7.7 4.34 7.77 7.03 7.77 7.1 7.7 4.27 7.7" style="fill:#ed2124"/>
<polygon points="4.49 7.9 4.56 7.97 6.82 7.97 6.89 7.9 4.49 7.9" style="fill:#ed2124"/>
<polygon points="4.7 8.1 4.77 8.17 6.61 8.17 6.68 8.1 4.7 8.1" style="fill:#ed2124"/>
<polygon points="3.64 7.09 3.71 7.16 7.66 7.16 7.73 7.09 3.64 7.09" style="fill:#ed2124"/><polygon points="3.92 7.36 7.45 7.36 7.52 7.29 3.85 7.3 3.92 7.36" style="fill:#ed2124"/><polygon points="4.06 7.5 4.13 7.57 7.24 7.56 7.31 7.5 4.06 7.5" style="fill:#ed2124"/>
<polygon points="10.12 4.8 10.23 4.71 1.15 4.71 1.25 4.81 10.12 4.8" style="fill:#ed2124"/>
<polygon points="5.19 8.57 5.26 8.64 6.12 8.64 6.18 8.57 5.19 8.57" style="fill:#ed2124"/>
<polygon points="5.61 8.98 5.68 9.04 5.69 9.04 5.76 8.98 5.61 8.98" style="fill:#ed2124"/>
<polygon points="5.4 8.78 5.47 8.84 5.9 8.84 5.97 8.78 5.4 8.78" style="fill:#ed2124"/>
<polygon points="4.91 8.3 5.05 8.44 6.33 8.44 6.47 8.3 4.91 8.3" style="fill:#ed2124"/>
<polygon points="1.81 5.35 1.88 5.41 9.49 5.41 9.56 5.34 1.81 5.35" style="fill:#ed2124"/>
<polygon points="2.31 5.82 2.38 5.88 9 5.88 9.07 5.82 2.31 5.82" style="fill:#ed2124"/>
<polygon points="2.02 5.55 2.16 5.68 9.21 5.68 9.35 5.54 2.02 5.55" style="fill:#ed2124"/>
<polygon points="3.43 6.89 3.5 6.96 7.87 6.96 7.94 6.89 3.43 6.89" style="fill:#ed2124"/>
<polygon points="1.6 5.14 1.67 5.21 9.7 5.21 9.77 5.14 1.6 5.14" style="fill:#ed2124"/>
<polygon points="1.39 4.94 1.46 5.01 9.91 5.01 9.98 4.94 1.39 4.94" style="fill:#ed2124"/>
<polygon points="2.94 6.42 3.08 6.56 8.29 6.55 8.44 6.42 2.94 6.42" style="fill:#ed2124"/>
<polygon points="2.52 6.02 2.59 6.08 8.79 6.08 8.86 6.02 2.52 6.02" style="fill:#ed2124"/>
<polygon points="3.22 6.69 3.29 6.76 8.08 6.76 8.15 6.69 3.22 6.69" style="fill:#ed2124"/>
<polygon points="2.73 6.22 2.8 6.29 8.57 6.29 8.65 6.22 2.73 6.22" style="fill:#ed2124"/>
<polygon points="2.58 17.19 2.51 17.25 8.82 17.25 8.75 17.19 2.58 17.19" style="fill:#ed2124"/>
<polygon points="3.01 16.78 2.94 16.85 8.4 16.85 8.33 16.78 3.01 16.78" style="fill:#ed2124"/>
polygon points="3.29 16.51 3.15 16.65 8.19 16.65 8.04 16.51 3.29 16.51" style="fill:#ed2124"/>
<polygon points="2.37 17.39 2.23 17.52 9.1 17.52 8.96 17.39 2.37 17.39" style="fill:#ed2124"/>
<polygon points="1.67 18.06 1.6 18.13 9.73 18.13 9.66 18.06 1.67 18.06" style="fill:#ed2124"/>
<polygon points="1.46 18.26 1.32 18.4 10.01 18.4 9.87 18.26 1.46 18.26" style="fill:#ed2124"/>
<polygon points="2.09 17.66 2.02 17.73 9.31 17.73 9.24 17.66 2.09 17.66" style="fill:#ed2124"/>
<polygon points="1.13 18.58 10.21 18.58 10.15 18.53 1.18 18.53 1.13 18.58" style="fill:#ed2124"/>
<polygon points="1.88 17.86 1.81 17.93 9.52 17.93 9.45 17.86 1.88 17.86" style="fill:#ed2124"/>
<polygon points="3.5 16.31 3.43 16.38 7.9 16.38 7.83 16.31 3.5 16.31" style="fill:#ed2124"/>
<polygon points="2.8 16.98 2.73 17.05 8.61 17.05 8.54 16.98 2.8 16.98" style="fill:#ed2124"/>
<polygon points="4.76 15.1 4.69 15.17 6.64 15.17 6.57 15.1 4.76 15.1" style="fill:#ed2124"/>
<polygon points="4.98 14.9 4.91 14.97 6.43 14.97 6.36 14.9 4.98 14.9" style="fill:#ed2124"/>
<polygon points="5.26 14.63 5.12 14.76 6.22 14.76 6.08 14.63 5.26 14.63" style="fill:#ed2124"/>
<polygon points="5.47 14.43 5.4 14.49 5.93 14.49 5.86 14.43 5.47 14.43" style="fill:#ed2124"/>
<polygon points="5.61 14.29 5.72 14.29 5.67 14.24 5.61 14.29" style="fill:#ed2124"/>
<polygon points="4.13 15.71 4.06 15.77 7.27 15.77 7.2 15.71 4.13 15.71" style="fill:#ed2124"/>
<polygon points="3.71 16.11 3.64 16.18 7.69 16.18 7.62 16.11 3.71 16.11" style="fill:#ed2124"/>
<polygon points="4.55 15.3 4.48 15.37 6.85 15.37 6.78 15.3 4.55 15.3" style="fill:#ed2124"/>
<polygon points="3.92 15.91 3.85 15.97 7.48 15.97 7.41 15.91 3.92 15.91" style="fill:#ed2124"/>
<polygon points="4.27 15.57 7.06 15.57 6.99 15.5 4.34 15.5 4.27 15.57" style="fill:#ed2124"/>
<polygon points="17.04 5.82 27.02 5.82 27.2 5.61 17.22 5.61 17.04 5.82" style="fill:#ed2124"/>
<polygon points="17.34 5.48 27.32 5.48 27.38 5.41 17.39 5.41 17.34 5.48" style="fill:#ed2124"/>
<polygon points="15.67 7.36 25.66 7.36 25.72 7.3 15.73 7.3 15.67 7.36" style="fill:#ed2124"/>
<polygon points="19.41 3.12 29.4 3.12 29.52 2.99 19.53 2.99 19.41 3.12" style="fill:#ed2124"/>
<polygon points="19.24 3.33 29.22 3.33 29.28 3.26 19.3 3.26 19.24 3.33" style="fill:#ed2124"/>
<polygon points="12.88 10.53 22.87 10.53 22.93 10.46 12.94 10.46 12.88 10.53" style="fill:#ed2124"/>
<polygon points="12.76 10.66 12.7 10.73 22.69 10.73 22.75 10.66 12.76 10.66" style="fill:#ed2124"/>
<polygon points="12.22 11.27 22.21 11.27 22.39 11.06 12.4 11.06 12.22 11.27" style="fill:#ed2124"/>
<polygon points="12.52 10.93 22.51 10.93 22.57 10.86 12.58 10.86 12.52 10.93" style="fill:#ed2124"/>
<polygon points="15.43 7.63 25.42 7.63 25.54 7.5 15.55 7.5 15.43 7.63" style="fill:#ed2124"/>
<polygon points="19.65 2.85 29.64 2.85 29.82 2.65 19.83 2.65 19.65 2.85" style="fill:#ed2124"/>
<polygon points="14.07 9.18 24.05 9.18 24.11 9.11 14.13 9.11 14.07 9.18" style="fill:#ed2124"/>
<polygon points="21.94 11.67 11.95 11.67 12.01 11.74 22 11.74 21.94 11.67" style="fill:#ed2124"/>
<polygon points="28.24 18.8 28.18 18.73 18.19 18.73 18.25 18.8 28.24 18.8" style="fill:#ed2124"/>
<polygon points="29.11 3.46 19.12 3.46 19.06 3.53 29.05 3.53 29.11 3.46" style="fill:#ed2124"/>
<polygon points="28.41 19 28.36 18.94 18.37 18.94 18.43 19 28.41 19" style="fill:#ed2124"/>
<polygon points="17.48 17.93 17.54 17.99 27.52 17.99 27.46 17.93 17.48 17.93" style="fill:#ed2124"/>
<polygon points="17.36 17.79 27.35 17.79 27.29 17.73 17.3 17.73 17.36 17.79" style="fill:#ed2124"/>
<polygon points="17.71 18.2 27.7 18.2 27.64 18.13 17.66 18.13 17.71 18.2" style="fill:#ed2124"/>
<polygon points="20.01 2.45 19.95 2.52 29.94 2.52 30 2.45 20.01 2.45" style="fill:#ed2124"/>
<polygon points="20.13 2.32 30.11 2.32 30.17 2.25 20.19 2.25 20.13 2.32" style="fill:#ed2124"/>
<polygon points="18.07 18.6 28.06 18.6 27.82 18.33 17.83 18.33 18.07 18.6" style="fill:#ed2124"/>
<polygon points="16.59 16.92 26.57 16.92 26.51 16.85 16.53 16.85 16.59 16.92" style="fill:#ed2124"/>
<polygon points="11.39 0.97 31.3 0.97 31.36 0.9 11.45 0.9 11.39 0.97" style="fill:#ed2124"/>
<polygon points="11.16 1.24 31.07 1.24 31.18 1.11 11.27 1.11 11.16 1.24" style="fill:#ed2124"/>
<polygon points="26.02 6.96 26.07 6.89 16.09 6.89 16.03 6.96 26.02 6.96" style="fill:#ed2124"/>
<polygon points="20.9 1.44 30.89 1.44 30.95 1.38 20.96 1.38 20.9 1.44" style="fill:#ed2124"/>
<polygon points="13.65 9.65 23.64 9.65 23.7 9.58 13.71 9.58 13.65 9.65" style="fill:#ed2124"/>
<polygon points="16.21 6.76 26.19 6.76 26.31 6.62 16.32 6.62 16.21 6.76" style="fill:#ed2124"/>
<polygon points="12.43 12.21 22.41 12.21 22.3 12.07 12.31 12.07 12.43 12.21" style="fill:#ed2124"/>
<polygon points="11.51 22.43 31.45 22.43 31.39 22.37 11.46 22.37 11.51 22.43" style="fill:#ed2124"/>
<polygon points="18.64 4 28.63 4 28.75 3.86 18.76 3.86 18.64 4" style="fill:#ed2124"/>
<polygon points="14.57 14.63 24.55 14.63 24.49 14.56 14.51 14.56 14.57 14.63" style="fill:#ed2124"/>
<polygon points="13.38 13.28 23.36 13.28 23.3 13.22 13.32 13.22 13.38 13.28" style="fill:#ed2124"/>
<polygon points="19.02 19.68 29.01 19.68 28.95 19.61 18.96 19.61 19.02 19.68" style="fill:#ed2124"/>
<polygon points="16.8 6.08 26.79 6.08 26.91 5.95 16.92 5.95 16.8 6.08" style="fill:#ed2124"/>
<polygon points="15.14 7.97 15.08 8.04 25.06 8.04 25.12 7.97 15.14 7.97" style="fill:#ed2124"/>
<polygon points="24.41 8.78 24.47 8.71 14.48 8.71 14.42 8.78 24.41 8.78" style="fill:#ed2124"/>
<polygon points="24.23 8.98 24.29 8.91 14.3 8.91 14.24 8.98 24.23 8.98" style="fill:#ed2124"/>
<polygon points="15.26 7.83 25.24 7.83 25.3 7.77 15.31 7.77 15.26 7.83" style="fill:#ed2124"/>
<polygon points="13.83 9.45 23.82 9.45 23.93 9.31 13.95 9.31 13.83 9.45" style="fill:#ed2124"/>
<polygon points="11.99 11.54 21.97 11.54 22.09 11.4 12.11 11.4 11.99 11.54" style="fill:#ed2124"/>
<polygon points="26.61 6.29 26.67 6.22 16.68 6.22 16.62 6.29 26.61 6.29" style="fill:#ed2124"/>
<polygon points="25.84 7.16 25.9 7.09 15.91 7.09 15.85 7.16 25.84 7.16" style="fill:#ed2124"/>
<polygon points="14.6 8.57 24.59 8.57 24.77 8.37 14.78 8.37 14.6 8.57" style="fill:#ed2124"/>
<polygon points="14.9 8.24 24.89 8.24 24.95 8.17 14.96 8.17 14.9 8.24" style="fill:#ed2124"/>
<polygon points="26.43 6.49 26.49 6.42 16.5 6.42 16.44 6.49 26.43 6.49" style="fill:#ed2124"/>
<polygon points="14.39 14.43 24.38 14.43 24.26 14.29 14.27 14.29 14.39 14.43" style="fill:#ed2124"/>
<polygon points="11.8 22.77 11.86 22.84 31.8 22.84 31.74 22.77 11.8 22.77" style="fill:#ed2124"/>
<polygon points="11.63 22.57 11.69 22.64 31.62 22.64 31.56 22.57 11.63 22.57" style="fill:#ed2124"/>
<polygon points="11.73 0.57 31.66 0.57 31.72 0.5 11.79 0.5 11.73 0.57" style="fill:#ed2124"/>
<polygon points="19.62 20.35 29.6 20.35 29.48 20.21 19.5 20.21 19.62 20.35" style="fill:#ed2124"/>
<polygon points="19.14 19.81 19.2 19.88 29.19 19.88 29.13 19.81 19.14 19.81" style="fill:#ed2124"/>
<polygon points="11.62 0.7 11.56 0.77 31.48 0.77 31.54 0.7 11.62 0.7" style="fill:#ed2124"/>
<polygon points="19.32 20.01 19.38 20.08 29.37 20.08 29.31 20.01 19.32 20.01" style="fill:#ed2124"/>
<polygon points="18.88 3.73 28.87 3.73 28.93 3.66 18.94 3.66 18.88 3.73" style="fill:#ed2124"/>
<polygon points="17.69 5.08 27.68 5.08 27.74 5.01 17.75 5.01 17.69 5.08" style="fill:#ed2124"/>
<polygon points="20.31 2.12 30.29 2.12 30.41 1.98 20.42 1.98 20.31 2.12" style="fill:#ed2124"/>
<polygon points="20.78 1.58 20.72 1.64 30.71 1.64 30.77 1.58 20.78 1.58" style="fill:#ed2124"/>
<polygon points="17.57 5.21 17.51 5.28 27.5 5.28 27.56 5.21 17.57 5.21" style="fill:#ed2124"/>
<polygon points="20.54 1.85 30.53 1.85 30.59 1.78 20.6 1.78 20.54 1.85" style="fill:#ed2124"/>
<polygon points="18.17 4.54 18.11 4.6 28.09 4.6 28.15 4.54 18.17 4.54" style="fill:#ed2124"/>
<polygon points="17.87 4.87 27.86 4.87 27.98 4.74 17.99 4.74 17.87 4.87" style="fill:#ed2124"/>
<polygon points="12.72 12.54 12.78 12.61 22.77 12.61 22.71 12.54 12.72 12.54" style="fill:#ed2124"/>
<polygon points="12.9 12.75 12.96 12.81 22.95 12.81 22.89 12.75 12.9 12.75" style="fill:#ed2124"/>
<polygon points="31.84 0.36 31.89 0.31 31.87 0.31 31.89 0.3 11.96 0.3 11.91 0.36 31.84 0.36" style="fill:#ed2124"/>
<polygon points="18.34 4.33 18.29 4.4 28.27 4.4 28.33 4.33 18.34 4.33" style="fill:#ed2124"/>
<polygon points="13.2 13.08 23.19 13.08 23.07 12.95 13.08 12.95 13.2 13.08" style="fill:#ed2124"/>
<polygon points="14.68 14.76 14.74 14.83 24.73 14.83 24.67 14.76 14.68 14.76" style="fill:#ed2124"/>
<polygon points="13.97 13.96 23.96 13.96 23.84 13.82 13.85 13.82 13.97 13.96" style="fill:#ed2124"/>
<polygon points="14.92 15.03 24.91 15.03 24.85 14.97 14.86 14.97 14.92 15.03" style="fill:#ed2124"/>
<polygon points="16.41 16.72 26.39 16.72 26.28 16.58 16.29 16.58 16.41 16.72" style="fill:#ed2124"/>
<polygon points="13.67 13.62 13.73 13.69 23.72 13.69 23.66 13.62 13.67 13.62" style="fill:#ed2124"/>
<polygon points="13.5 13.42 13.55 13.49 23.54 13.49 23.48 13.42 13.5 13.42" style="fill:#ed2124"/>
<polygon points="20.63 21.49 30.61 21.49 30.55 21.43 20.57 21.43 20.63 21.49" style="fill:#ed2124"/>
<polygon points="11.34 22.23 31.27 22.23 31.15 22.1 11.22 22.1 11.34 22.23" style="fill:#ed2124"/>
<polygon points="18.84 19.47 28.83 19.47 28.71 19.34 18.73 19.34 18.84 19.47" style="fill:#ed2124"/>
<polygon points="20.86 21.76 30.85 21.76 30.73 21.63 20.75 21.63 20.86 21.76" style="fill:#ed2124"/>
<polygon points="15.4 15.57 25.39 15.57 25.32 15.5 15.34 15.5 15.4 15.57" style="fill:#ed2124"/>
<polygon points="21.04 21.96 31.03 21.96 30.97 21.9 20.98 21.9 21.04 21.96" style="fill:#ed2124"/>
<polygon points="26.16 16.45 26.1 16.38 16.11 16.38 16.17 16.45 26.16 16.45" style="fill:#ed2124"/>
<polygon points="15.63 15.84 25.62 15.84 25.5 15.71 15.52 15.71 15.63 15.84" style="fill:#ed2124"/>
<polygon points="26.69 17.05 16.7 17.05 16.76 17.12 26.75 17.12 26.69 17.05" style="fill:#ed2124"/>
<polygon points="25.8 16.04 25.74 15.97 15.75 15.97 15.81 16.04 25.8 16.04" style="fill:#ed2124"/>
<polygon points="25.98 16.25 25.92 16.18 15.93 16.18 15.99 16.25 25.98 16.25" style="fill:#ed2124"/>
<polygon points="20.45 21.29 30.44 21.29 30.26 21.09 20.27 21.09 20.45 21.29" style="fill:#ed2124"/>
<polygon points="13.06 10.32 23.04 10.32 23.16 10.19 13.18 10.19 13.06 10.32" style="fill:#ed2124"/>
<polygon points="12.19 11.94 22.18 11.94 22.12 11.87 12.13 11.87 12.19 11.94" style="fill:#ed2124"/>
<polygon points="15.22 15.37 25.21 15.37 25.03 15.17 15.04 15.17 15.22 15.37" style="fill:#ed2124"/>
<polygon points="14.15 14.16 24.14 14.16 24.08 14.09 14.09 14.09 14.15 14.16" style="fill:#ed2124"/>
<polygon points="13.29 10.05 23.28 10.05 23.34 9.99 13.35 9.99 13.29 10.05" style="fill:#ed2124"/>
<polygon points="13.53 9.79 13.47 9.85 23.46 9.85 23.52 9.79 13.53 9.79" style="fill:#ed2124"/>
<polygon points="17.18 17.59 27.17 17.59 27.05 17.46 17.06 17.46 17.18 17.59" style="fill:#ed2124"/>
<polygon points="19.91 20.68 19.97 20.75 29.96 20.75 29.9 20.68 19.91 20.68" style="fill:#ed2124"/>
<polygon points="19.79 20.55 29.78 20.55 29.72 20.48 19.73 20.48 19.79 20.55" style="fill:#ed2124"/>
<polygon points="18.61 19.2 28.59 19.2 28.53 19.14 18.55 19.14 18.61 19.2" style="fill:#ed2124"/>
<polygon points="20.15 20.95 30.14 20.95 30.08 20.89 20.09 20.89 20.15 20.95" style="fill:#ed2124"/>
<polygon points="16.94 17.32 26.93 17.32 26.87 17.25 16.88 17.25 16.94 17.32" style="fill:#ed2124"/>
</svg>